<svg xmlns="http://www.w3.org/2000/svg" viewBox="0 0 50 50">
  <path d="M20 4C15.054688 4 11 8.054688 11 13L11 35.5625L5.71875 30.28125L4.28125 31.71875L11.28125 38.71875L12 39.40625L12.71875 38.71875L19.71875 31.71875L18.28125 30.28125L13 35.5625L13 13C13 9.144531 16.144531 6 20 6L31 6L31 4 Z M 38 10.59375L37.28125 11.28125L30.28125 18.28125L31.71875 19.71875L37 14.4375L37 37C37 40.855469 33.855469 44 30 44L19 44L19 46L30 46C34.945313 46 39 41.945313 39 37L39 14.4375L44.28125 19.71875L45.71875 18.28125L38.71875 11.28125Z" fill="#04D361" />
</svg>