<svg xmlns="http://www.w3.org/2000/svg" viewBox="0 0 32 32">
  <path d="M16 3C8.832031 3 3 8.832031 3 16C3 23.167969 8.832031 29 16 29C23.167969 29 29 23.167969 29 16C29 8.832031 23.167969 3 16 3 Z M 16 5C22.085938 5 27 9.914063 27 16C27 22.085938 22.085938 27 16 27C9.914063 27 5 22.085938 5 16C5 9.914063 9.914063 5 16 5 Z M 12.21875 10.78125L10.78125 12.21875L14.5625 16L10.78125 19.78125L12.21875 21.21875L16 17.4375L19.78125 21.21875L21.21875 19.78125L17.4375 16L21.21875 12.21875L19.78125 10.78125L16 14.5625Z" fill="#873EFF" />
</svg>